# xmcd
#
# Track frame offsets:
#	182
#	17767
#	32052
#	45680
#	59597
#	69905
#	85712
#	98617
#	109902
#	127075
#
# Disc length: 1842
#
# Revision: 1
# Processed by: cddbd v1.5.1PL0 Copyright (c) Steve Scherf et al.
# Submitted via: EasyCDDAExtractor 4.6.0.1
# Normalized: r0:TDELIM( - )
#
DISCID=8007300a
DTITLE=Various Artist - Christmas Country Style
DYEAR=1900
DGENRE=
TTITLE0=Tanya Tucker - Winter Wonderland
TTITLE1=Glen Campbell - The Christmas Song
TTITLE2=Cristy Lane - The Christmas Song
TTITLE3=Larry Gatlin and The Gatlin Brothers - Silver Bells
TTITLE4=Lacy J. Dalton - Away In A Manager
TTITLE5=Eddie Rabbitt - Have Yourself A Merry Little Christmas
TTITLE6=Suzy Bogguss - I Heard The Bells On Christmas Day
TTITLE7=Merle Haggard - White Christmas
TTITLE8=Wild Rose - Star Of Bethlehem
TTITLE9=Eddy Raven - Thank god For Kids
EXTD=
EXTT0=
EXTT1=
EXTT2=
EXTT3=
EXTT4=
EXTT5=
EXTT6=
EXTT7=
EXTT8=
EXTT9=
PLAYORDER=
